<svg width="18" height="18" viewBox="0 0 18 18" fill="none" xmlns="http://www.w3.org/2000/svg">
<g id="ep:warning-filled">
<path id="Vector" d="M9 1.125C11.0886 1.125 13.0916 1.95469 14.5685 3.43153C16.0453 4.90838 16.875 6.91142 16.875 9C16.875 11.0886 16.0453 13.0916 14.5685 14.5685C13.0916 16.0453 11.0886 16.875 9 16.875C6.91142 16.875 4.90838 16.0453 3.43153 14.5685C1.95469 13.0916 1.125 11.0886 1.125 9C1.125 6.91142 1.95469 4.90838 3.43153 3.43153C4.90838 1.95469 6.91142 1.125 9 1.125V1.125ZM9 4.5C8.85717 4.49988 8.71588 4.52955 8.58517 4.58711C8.45445 4.64467 8.33718 4.72887 8.24084 4.83431C8.14449 4.93976 8.0712 5.06414 8.02565 5.19951C7.98009 5.33488 7.96327 5.47826 7.97625 5.6205L8.38687 10.1272C8.40279 10.2788 8.47425 10.419 8.58747 10.521C8.70069 10.6229 8.84765 10.6793 9 10.6793C9.15235 10.6793 9.29931 10.6229 9.41253 10.521C9.52575 10.419 9.59721 10.2788 9.61313 10.1272L10.0226 5.6205C10.0356 5.47836 10.0188 5.33507 9.97332 5.19977C9.92783 5.06448 9.85464 4.94016 9.75842 4.83473C9.6622 4.7293 9.54506 4.64508 9.41448 4.58745C9.2839 4.52982 9.14274 4.50003 9 4.5V4.5ZM9 13.5C9.23869 13.5 9.46761 13.4052 9.6364 13.2364C9.80518 13.0676 9.9 12.8387 9.9 12.6C9.9 12.3613 9.80518 12.1324 9.6364 11.9636C9.46761 11.7948 9.23869 11.7 9 11.7C8.76131 11.7 8.53239 11.7948 8.3636 11.9636C8.19482 12.1324 8.1 12.3613 8.1 12.6C8.1 12.8387 8.19482 13.0676 8.3636 13.2364C8.53239 13.4052 8.76131 13.5 9 13.5V13.5Z" fill="#ED4C5C"/>
</g>
</svg>
